<svg width="218" height="62" viewBox="0 0 218 62" fill="none" xmlns="http://www.w3.org/2000/svg">
<g clip-path="url(#clip0_46_1012)">
<path d="M32.4515 0C25.1955 0 19.2919 5.90424 19.2919 13.161C19.2919 20.4177 31.2317 36.4659 31.74 37.157L32.2145 37.8026C32.2698 37.8783 32.3583 37.9232 32.4515 37.9232C32.5446 37.9232 32.6337 37.8789 32.6896 37.8026L33.1635 37.157C33.6723 36.4659 45.6116 20.1464 45.6116 13.161C45.6116 6.17555 39.708 0 32.4515 0ZM32.4515 8.44677C35.0516 8.44677 37.1656 10.5608 37.1656 13.161C37.1656 15.7611 35.0516 17.8752 32.4515 17.8752C29.8513 17.8752 27.7374 15.7594 27.7374 13.161C27.7374 10.5608 29.8531 8.44677 32.4515 8.44677Z" fill="#FFBF00"/>
<path d="M32.4532 61.6531C32.0695 61.6531 31.6864 61.5524 31.3441 61.3504L24.2901 57.1899H2.18326C0.97752 57.1899 0 56.2123 0 55.0065C0 53.8008 0.97752 52.8232 2.18326 52.8232H24.8857C25.2758 52.8232 25.6589 52.9275 25.9948 53.126L32.4532 56.9348L38.911 53.126C39.2469 52.928 39.63 52.8232 40.0201 52.8232H62.7214C63.9272 52.8232 64.9047 53.8008 64.9047 55.0065C64.9047 56.2123 63.9272 57.1899 62.7214 57.1899H40.6163L33.5623 61.3504C33.22 61.5524 32.8369 61.6531 32.4532 61.6531Z" fill="#FFBF00"/>
<path d="M32.4555 52.0739C32.0887 51.8386 31.7231 51.6028 31.3587 51.367C29.3378 50.0606 27.4294 48.8263 25.3847 47.9035L25.3713 47.897C19.604 45.2596 14.179 45.7568 8.19276 46.6173L7.36429 40.8546C14.0212 39.898 20.5931 39.3117 27.7874 42.6006C29.4432 43.3482 30.9796 44.2384 32.4555 45.1595C33.9314 44.2384 35.4679 43.3482 37.1236 42.6006C44.3185 39.3117 50.8899 39.898 57.5468 40.8546L56.7189 46.6173C50.7327 45.7568 45.3077 45.2596 39.5404 47.897L39.527 47.9035C37.4823 48.8263 35.5732 50.0606 33.5524 51.3676C33.1879 51.6034 32.8229 51.8392 32.4561 52.0744L32.4555 52.0739Z" fill="#FFBF00"/>
</g>
<g clip-path="url(#clip1_46_1012)">
<path d="M87.7328 35.0771C87.7328 35.9562 88.2983 36.4588 89.4285 36.583H97.5302C100.325 36.583 102.271 37.18 103.371 38.372C104.47 39.5641 104.854 41.0392 104.525 42.7975C104.195 44.5547 103.119 46.1704 101.298 47.6465C99.4764 49.1217 96.9647 49.8592 93.7621 49.8592C87.8898 49.8592 84.1217 48.9955 82.4569 47.2701C81.8287 46.5797 81.5618 45.7708 81.6562 44.8455C81.7506 43.9192 82.0956 43.1662 82.6929 42.5856C83.2893 42.005 83.9647 41.6044 84.7181 41.3849C83.7122 40.5376 83.2103 39.4861 83.2103 38.2305C83.2103 36.9749 83.5947 35.8531 84.3645 34.8643C85.1334 33.8754 86.0207 33.0839 87.0256 32.4869C83.4145 31.1697 81.609 28.8 81.609 25.3789C81.609 22.8369 82.7787 20.8678 85.1179 19.4706C87.4572 18.0745 90.1029 17.3754 93.0549 17.3754C94.4683 17.3754 95.8808 17.5949 97.2942 18.034C96.5716 17.0615 96.2103 15.9003 96.2103 14.5503C96.2103 13.2003 96.6737 12.0786 97.5996 11.1841C98.5255 10.2896 99.6874 9.84277 101.085 9.84277C102.483 9.84277 103.535 10.2116 104.242 10.9491C104.948 11.6867 105.302 12.5109 105.302 13.4208C105.302 14.3308 105.026 15.1001 104.477 15.7279C103.927 16.3557 103.205 16.6696 102.31 16.6696C101.415 16.6696 100.7 16.3721 100.166 15.7751C99.6315 15.1791 99.3656 14.5744 99.3656 13.963C99.3656 13.3515 99.4832 12.8181 99.7192 12.3626C99.9543 11.9082 100.073 11.6491 100.073 11.5856C99.9784 11.0839 99.6643 10.9424 99.1305 11.1619C98.5958 11.3815 98.1334 11.8292 97.7412 12.5032C97.3481 13.1782 97.1526 13.9552 97.1526 14.8334C97.1526 16.5598 97.9214 17.9406 99.461 18.9757C102.162 20.4826 103.512 22.5692 103.512 25.2364C103.512 27.9036 102.398 29.9208 100.168 31.2852C97.9378 32.6506 95.3008 33.3333 92.2543 33.3333C90.7783 33.3333 89.4747 33.1763 88.3446 32.8624C87.9361 33.5528 87.7318 34.2913 87.7318 35.0751L87.7328 35.0771ZM97.2479 42.7031H89.3341C87.8262 42.7031 86.5545 42.4364 85.5187 41.9029C85.0784 44.1628 85.6517 45.896 87.2376 47.1044C88.8225 48.3119 90.998 48.9166 93.7612 48.9166C96.5244 48.9166 98.8165 48.2262 100.638 46.8454C101.486 46.2176 101.957 45.5898 102.052 44.962C102.146 44.3342 101.785 43.8008 100.969 43.3617C100.152 42.9217 98.9118 42.7031 97.2479 42.7031ZM96.4473 25.2614C96.4473 22.5779 96.1332 20.7503 95.505 19.7768C94.8769 18.8043 93.9423 18.3171 92.7023 18.3171C91.4623 18.3171 90.5586 18.8111 89.994 19.8C89.4285 20.7888 89.1462 22.601 89.1462 25.2374C89.1462 27.8737 89.4439 29.7254 90.0412 30.7922C90.6376 31.8591 91.5404 32.3925 92.7495 32.3925C93.9587 32.3925 94.8769 31.8745 95.505 30.8394C96.1332 29.8033 96.4473 27.944 96.4473 25.2605V25.2614Z" fill="#FFBF00"/>
<path d="M124.285 39.4543V36.9595C123.687 37.8068 122.754 38.5213 121.482 39.1019C120.21 39.6825 118.836 39.9724 117.36 39.9724C111.77 39.9724 108.976 36.9441 108.976 30.8866V18.7408H106.621V17.7991H116.041V31.9217C116.041 34.1508 116.371 35.7347 117.031 36.6764C117.69 37.6181 118.679 38.089 119.998 38.089C121.757 38.089 123.185 37.1473 124.285 35.2648V18.7417H121.929V17.8H131.35V38.5136H133.705V39.4553H124.285V39.4543Z" fill="#FFBF00"/>
<path d="M146.423 38.5135H148.779V39.4552H137.002V38.5135H139.357V18.7417H137.473V17.8H146.422V38.5135H146.423ZM146.847 11.5624C146.847 12.7082 146.446 13.6807 145.646 14.4809C144.845 15.281 143.871 15.6816 142.725 15.6816C141.58 15.6816 140.598 15.281 139.781 14.4809C138.964 13.6807 138.556 12.7082 138.556 11.5624C138.556 10.4166 138.964 9.43635 139.781 8.61982C140.597 7.80426 141.579 7.396 142.725 7.396C143.872 7.396 144.845 7.80426 145.646 8.61982C146.446 9.43635 146.847 10.4166 146.847 11.5624Z" fill="#FFBF00"/>
<path d="M160.978 40.0195C158.435 40.0195 156.236 39.0152 154.383 37.0066C152.53 34.999 151.604 32.1575 151.604 28.4861C151.604 24.8146 152.514 21.9423 154.336 19.8712C156.157 17.8 158.371 16.7639 160.978 16.7639C162.265 16.7639 163.474 17.0306 164.606 17.5641C165.736 18.0985 166.553 18.8986 167.055 19.9646V8.85576H164.699V7.91406H174.12V38.5135H176.475V39.4552H167.055V37.2897C166.207 39.1105 164.182 40.0205 160.978 40.0205V40.0195ZM167.055 29.1447V21.3771C166.207 19.6824 165.1 18.8351 163.734 18.8351C162.367 18.8351 161.198 19.6198 160.225 21.1893C159.251 22.7588 158.764 25.246 158.764 28.6507C158.764 32.0555 159.266 34.5436 160.271 36.1121C161.276 37.6816 162.485 38.3566 163.898 38.1361C164.683 38.0109 165.28 37.7596 165.689 37.3831C166.599 36.505 167.055 33.7579 167.055 29.1447Z" fill="#FFBF00"/>
<path d="M200.828 39.3368C199.948 39.5728 198.928 39.6902 197.766 39.6902C195.191 39.6902 193.574 38.9218 192.914 37.3832C191.344 39.0152 188.941 39.8308 185.707 39.8308C183.98 39.8308 182.559 39.4302 181.444 38.6301C180.329 37.8299 179.771 36.6456 179.771 35.0761C179.771 32.9741 180.587 31.3497 182.221 30.2039C183.853 29.059 186.711 28.2502 190.793 27.7794L192.678 27.5434V25.2364C192.678 22.5056 192.474 20.6704 192.065 19.7287C191.657 18.787 190.848 18.3161 189.639 18.3161C188.43 18.3161 187.653 18.4808 187.308 18.8101C186.962 19.1394 186.837 19.5159 186.931 19.9396C187.025 20.3632 187.182 20.9207 187.402 21.6111C187.622 22.3015 187.732 22.8513 187.732 23.2586C187.732 24.2321 187.393 25.0554 186.719 25.7303C186.045 26.4053 185.227 26.7423 184.27 26.7423C183.313 26.7423 182.487 26.4053 181.797 25.7303C181.106 25.0563 180.76 24.2321 180.76 23.2586C180.76 21.6583 181.585 20.2852 183.233 19.1394C184.882 17.9945 187.347 17.4207 190.629 17.4207C193.91 17.4207 196.25 18.0639 197.648 19.3503C199.045 20.6376 199.744 22.9129 199.744 26.1762V34.6495C199.744 36.3134 199.948 37.3562 200.357 37.7799C200.764 38.2035 201.518 38.2902 202.618 38.0389V38.5097C202.304 38.8236 201.707 39.098 200.828 39.334V39.3368ZM187.639 36.8892C188.361 37.5324 189.201 37.854 190.159 37.854C191.118 37.854 191.957 37.3832 192.68 36.4415V28.4389L190.984 28.6739C189.539 28.8626 188.37 29.4114 187.475 30.3214C186.58 31.2323 186.196 32.5033 186.321 34.1344C186.478 35.3274 186.917 36.245 187.64 36.8882L187.639 36.8892Z" fill="#FFBF00"/>
<path d="M214.866 38.5135H217.221V39.4552H205.445V38.5135H207.8V8.85576H205.445V7.91406H214.866V38.5135Z" fill="#FFBF00"/>
<path d="M131.205 28.5247L131.037 28.6447C130.885 28.4287 130.649 28.2767 130.329 28.1887C130.009 28.1007 129.789 27.9727 129.669 27.8047C129.549 27.6367 129.509 27.4567 129.549 27.2647C129.589 27.0647 129.693 26.9287 129.861 26.8567C129.989 26.7767 130.137 26.7607 130.305 26.8087C130.473 26.8487 130.613 26.9487 130.725 27.1087C130.837 27.2607 130.909 27.4847 130.941 27.7807C130.981 28.0767 131.069 28.3247 131.205 28.5247Z" fill="#FFBF00"/>
</g>
<defs>
<clipPath id="clip0_46_1012">
<rect width="64.9047" height="61.6531" fill="white"/>
</clipPath>
<clipPath id="clip1_46_1012">
<rect width="135.611" height="42.4622" fill="white" transform="translate(81.609 7.396)"/>
</clipPath>
</defs>
</svg>
